<?xml version="1.0" encoding="UTF-8" standalone="no"?>
<svg
   xmlns:dc="http://purl.org/dc/elements/1.1/"
   xmlns:cc="http://creativecommons.org/ns#"
   xmlns:rdf="http://www.w3.org/1999/02/22-rdf-syntax-ns#"
   xmlns:svg="http://www.w3.org/2000/svg"
   xmlns="http://www.w3.org/2000/svg"
   viewBox="0 0 188.57333 96"
   height="96"
   width="188.57333"
   xml:space="preserve"
   id="svg2"
   version="1.1"><metadata
     id="metadata8"><rdf:RDF><cc:Work
         rdf:about=""><dc:format>image/svg+xml</dc:format><dc:type
           rdf:resource="http://purl.org/dc/dcmitype/StillImage" /></cc:Work></rdf:RDF></metadata><defs
     id="defs6" /><g
     transform="matrix(1.3333333,0,0,-1.3333333,0,96)"
     id="g10"><g
       transform="scale(0.1)"
       id="g12"><path
         id="path14"
         style="fill:#f8d6ed;fill-opacity:1;fill-rule:nonzero;stroke:none"
         d="m 587.379,480.598 c 3.035,-4.379 13.484,-0.672 12.137,-9.098 -0.672,-3.371 -2.02,-6.074 -5.063,-7.422 -8.086,-0.672 -13.48,-5.058 -21.23,-5.726 -5.063,-3.043 -12.817,-3.711 -17.203,-7.082 -15.508,-11.125 -33.375,-20.571 -39.106,-40.461 -2.699,-1.688 -1.684,-5.731 -4.047,-7.086 -2.359,-10.446 -8.433,-19.887 -7.418,-31.012 -3.039,-16.523 5.059,-27.988 8.43,-41.816 2.691,-4.032 4.719,-8.418 9.437,-10.45 13.153,-14.832 27.309,-29.668 51.922,-28.992 2.024,-3.039 6.742,-1.015 8.434,-3.371 5.394,-0.332 11.465,0.676 16.183,-0.672 4.383,2.02 8.09,-0.676 10.79,-3.039 0.671,-2.695 -0.336,-8.426 -2.7,-10.449 -5.394,-3.367 -13.828,-4.043 -20.566,-2.363 -6.406,-0.664 -10.793,0.675 -16.859,0.675 -2.704,2.364 -7.079,2.696 -11.125,3.028 -10.118,-0.332 -13.157,8.093 -22.25,9.109 -4.723,-1.016 -5.735,5.402 -9.446,3.379 -4.383,2.023 -7.41,6.398 -12.133,8.086 -1.015,3.039 -4.046,3.371 -6.41,5.734 -2.023,3.368 -6.402,5.059 -8.765,8.426 -0.336,2.363 -3.032,2.024 -4.047,3.711 -1.688,7.414 -10.114,10.117 -11.461,17.188 -5.395,3.722 -6.07,10.46 -8.77,15.851 -1.683,9.102 -3.707,20.574 -2.691,30.008 0.332,5.055 -0.684,11.469 1.008,15.844 2.355,3.039 1.347,8.433 4.043,11.472 -0.336,6.063 4.382,9.434 4.382,15.168 2.364,3.035 5.399,6.407 5.399,11.129 5.394,3.703 4.383,12.809 10.785,15.508 4.723,8.426 14.84,10.785 18.887,19.551 4.379,5.738 13.82,4.387 18.207,10.449 5.058,1.02 8.43,3.043 12.808,4.723 h 38.438" /><path
         id="path16"
         style="fill:#f8d6ed;fill-opacity:1;fill-rule:nonzero;stroke:none"
         d="m 910.383,477.57 c 8.086,0.668 14.488,-1.351 21.582,-1.695 0,-3.363 4.707,-0.332 5.723,-2.352 1.011,-3.043 5.054,-5.734 2.363,-9.781 -0.344,-4.722 -2.024,-8.762 -5.063,-11.797 -4.05,-1.683 -4.715,-7.422 -8.758,-8.769 -3.71,-1.348 -7.429,-4.723 -10.792,-3.371 -4.723,-1.012 -10.118,1.687 -16.192,0.675 -3.023,-1.351 -2.691,-0.335 -6.734,-0.675 -8.086,1.011 -13.489,-1.684 -21.582,-0.676 -1.02,-3.371 -6.067,-0.676 -7.754,-2.695 -8.086,-1.012 -15.84,-3.371 -18.547,-10.789 1.016,-4.051 -2.695,-6.407 0,-9.778 -1.008,-8.097 3.711,-12.816 8.769,-16.855 6.407,-2.028 13.489,0 18.875,1.679 2.036,0 4.731,-0.671 5.063,1.352 6.414,1.008 13.824,1.352 18.211,5.059 6.062,-0.336 9.101,4.046 16.183,2.359 5.387,-4.383 8.083,-10.113 8.083,-18.207 -3.028,-2.699 -0.665,-8.086 -5.055,-10.113 -5.395,-5.391 -12.817,-1.348 -20.57,-3.707 -3.028,1.011 -9.43,2.015 -11.793,-0.68 -10.793,-0.332 -22.93,1.012 -29.668,-5.059 -4.731,-14.16 1.011,-23.261 5.386,-34.394 -1.343,-6.406 3.039,-8.426 2.707,-14.149 2.356,-1.679 1.336,-5.734 4.043,-7.422 3.035,-7.421 11.797,-8.769 18.887,-11.464 2.695,0.339 4.375,2.363 7.742,1.679 1.02,-2.355 4.731,-1.679 7.082,-1.679 5.059,5.058 17.539,-0.344 22.254,4.714 9.777,-0.671 22.934,6.075 26.301,-4.714 4.043,-5.059 3.039,-17.2 1.016,-22.922 -2.375,-1.688 -2.375,-5.059 -3.379,-7.422 l -2.696,-3.367 h -30.675 c -3.375,4.043 -10.79,2.019 -14.84,5.058 -6.742,1.68 -14.836,2.352 -20.903,5.731 -8.086,5.051 -21.238,2.687 -29.675,8.086 -10.45,0.343 -18.536,5.058 -26.973,8.429 -1.68,2.364 -1.68,5.731 -1.68,9.786 0.672,3.359 2.356,6.062 1.68,10.449 5.059,2.351 0.344,11.797 3.379,14.16 1.008,2.695 0.676,6.406 0.676,10.105 1.675,7.422 4.382,17.2 -2.368,22.258 -1.343,2.02 -4.043,4.043 -5.73,6.074 -1.691,6.743 3.035,8.086 4.043,12.813 5.73,2.016 9.109,6.738 9.785,13.144 3.035,2.028 1.008,8.09 1.68,12.133 -3.028,0.68 -1.004,4.723 -1.68,7.086 -2.019,10.785 -18.203,9.106 -14.504,23.606 4.043,4.039 10.793,3.367 14.504,8.086 4.719,1.687 10.106,2.359 13.816,5.734 11.133,2.016 16.86,10.785 26.973,14.496 2.363,2.359 7.758,1.348 9.445,4.723 5.735,1.011 9.446,4.383 14.493,6.406 5.742,-0.336 13.156,1.348 16.867,-1.348" /><path
         id="path18"
         style="fill:#f8d6ed;fill-opacity:1;fill-rule:nonzero;stroke:none"
         d="m 126.145,476.219 c 4.046,-3.371 -1.356,-6.406 -1.012,-10.457 -2.695,-3.703 -8.77,-2.356 -10.453,-7.41 -6.403,-2.7 -11.805,-7.418 -18.2073,-9.786 -3.0352,-3.027 -8.0938,-3.707 -12.1407,-5.39 -0.3398,-3.031 -3.7031,-0.672 -4.7187,-2.696 -6.4063,-9.781 -19.5547,-12.476 -25.2813,-22.593 -7.4218,-7.754 -9.7812,-18.875 -16.5312,-26.973 -2.0195,-5.059 -2.6953,-10.785 -3.3672,-17.195 -4.3789,-5.735 -1.3516,-18.535 -1.3516,-24.61 2.6993,-4.043 0.6836,-11.464 4.7188,-14.836 1.0195,-4.382 4.3867,-6.746 6.414,-10.117 0.6719,-3.035 5.0586,-3.035 5.7266,-5.73 4.3906,-3.371 7.7578,-8.762 11.4649,-12.813 8.7695,-5.058 17.1953,-10.793 28.996,-11.797 3.0352,-5.058 13.4847,0 16.8597,-4.386 1.683,1.347 3.707,-1.016 5.394,-1.348 5.735,-0.332 12.477,0.676 17.535,-0.672 2.016,0 7.075,-0.344 8.762,-3.039 2.024,-2.363 -0.672,-4.715 -0.672,-7.078 -2.363,-3.039 -4.386,-6.066 -9.105,-5.734 -10.449,-2.364 -20.567,0.343 -31.0158,0.675 -2.3633,2.02 -5.3946,3.028 -9.4454,2.364 -9.4375,0.664 -13.4921,8.425 -22.9257,9.101 -2.3633,1.016 -6.0703,0.672 -6.4102,3.711 -7.7461,1.348 -12.1328,6.738 -17.8633,10.789 -8.7734,7.414 -19.2226,15.508 -24.2812,25.957 -4.0391,2.707 -5.0586,8.43 -9.09768,11.125 -1.35547,4.727 -3.03516,9.785 -5.40234,13.828 1.01953,3.7 -2.355474,6.407 -1,8.426 -2.70313,5.059 -1.6914112,14.16 -0.67969,19.899 -1.683596,4.711 2.69922,5.058 1.67969,9.769 0,1.684 2.70312,3.375 0.68359,4.723 -0.68359,6.41 5.05859,8.433 4.04297,15.176 5.73436,3.031 2.01953,11.796 7.41796,15.171 2.3555,4.719 4.3828,9.442 8.7695,12.813 1.3477,4.043 5.7266,6.742 6.4063,11.465 5.0508,6.062 10.7851,11.121 14.4961,17.867 5.7305,3.371 11.4609,8.43 17.1914,9.105 5.7344,1.348 7.7539,-3.043 12.4766,-1.011 h 5.7265 c 1.6914,-2.032 3.0391,0.672 4.7227,1.011 5.7343,1.348 10.7929,3.704 17.539,4.047 2.016,0 5.055,-0.675 6.402,0.668 5.731,-0.668 13.829,1.688 17.536,-2.019" /><path
         id="path20"
         style="fill:#f8d6ed;fill-opacity:1;fill-rule:nonzero;stroke:none"
         d="m 1016.92,474.871 c 0.34,-3.707 2.36,-6.742 2.36,-10.793 1.69,-6.066 0,-14.496 3.38,-18.875 -1.35,-1.691 -1.35,-5.73 0,-7.082 1.34,-2.027 -0.35,-5.398 0.66,-8.09 -0.33,-7.086 0.34,-13.152 2.37,-18.551 -1.35,-4.378 2.02,-8.761 1.01,-14.496 3.7,-5.73 -1.01,-17.535 4.05,-22.25 -0.68,-11.457 1.01,-21.242 1.35,-32.031 2.01,-3.039 3.03,-6.75 2.69,-11.465 2.03,-0.675 1.01,-2.695 2.36,-4.054 2.02,-6.063 8.08,-8.086 12.81,-11.454 15.85,-4.726 19.22,8.094 34.05,4.715 3.71,-2.351 9.12,-4.715 8.1,-10.781 -1.02,-4.394 0.67,-9.441 0,-14.844 0.33,-4.715 5.05,-7.754 2.36,-12.812 l -4.05,-4.715 c -9.1,-1.348 -14.83,1.687 -22.25,3.027 -3.71,4.395 -12.14,1.688 -16.19,5.399 -4.71,3.711 -13.48,1.347 -20.22,2.031 -3.38,2.023 -7.42,2.688 -12.48,2.355 -4.39,2.02 -11.46,2.704 -15.85,2.364 -3.36,0.34 -6.399,2.019 -10.11,2.351 -4.05,0.344 -6.074,3.039 -10.793,2.707 -2.691,0.332 -5.054,2.02 -5.73,4.383 -0.676,3.028 0.676,4.719 2.019,6.399 2.368,-0.664 3.039,1.015 4.387,1.687 3.035,-2.703 3.035,2.363 7.078,0.676 7.422,1.687 6.75,10.449 10.119,15.848 -2.365,2.355 0.34,4.718 0.67,7.414 0.68,6.074 -1.343,11.804 -1.343,16.191 -2.024,1.68 -0.672,6.738 -1.016,10.105 3.379,2.696 -0.332,7.09 0.676,12.141 0.34,2.031 -1.008,5.731 1.353,6.406 1.68,11.125 -1.685,25.293 2.69,34.391 -1.01,2.699 -1.68,9.105 1.01,11.133 -3.03,2.691 -1.01,8.422 -1.68,12.804 2.02,0 1.68,2.7 1.68,4.387 -3.03,4.723 -1.01,13.149 -1.68,19.895 1.68,2.691 3.04,6.402 2.69,10.113 1.69,1.348 2.03,8.426 8.09,6.07 l 3.38,-2.699" /><path
         id="path22"
         style="fill:#f8d6ed;fill-opacity:1;fill-rule:nonzero;stroke:none"
         d="m 1158.53,474.871 c 2.69,-7.082 3.71,-14.504 3.03,-23.601 2.02,-5.055 3.04,-12.477 2.7,-17.54 0.34,-6.398 2.02,-11.796 1.35,-18.875 1.34,-2.027 2.02,-3.707 1.68,-6.738 h -0.34 c 2.71,-2.363 -0.67,-10.453 2.71,-13.152 0.67,-6.742 -1.35,-15.172 1.68,-20.231 v -23.261 c 3.37,-2.696 0.33,-10.118 2.36,-14.172 -1.69,-6.406 3.7,-7.742 1.69,-14.149 5.05,-5.402 14.83,-3.711 20.57,-7.422 6.39,0 13.82,-0.675 19.22,0.672 4.37,-3.367 11.45,-2.695 14.5,-8.425 0.33,-5.059 6.39,-6.067 4.04,-13.157 0,-5.39 7.75,-12.812 -0.34,-16.179 -0.67,-0.344 -0.34,-1.008 -0.34,-1.348 -10.45,-2.363 -16.18,4.051 -25.63,0.672 -7.41,3.379 -19.22,0 -25.95,4.726 -5.06,1.34 -11.47,0.332 -14.84,4.043 -7.08,0.676 -13.49,3.371 -19.55,5.735 -5.07,-1.348 -5.74,2.695 -10.8,1.679 -2.7,2.364 -8.09,0.672 -10.45,4.051 0.34,3.039 1.01,6.406 3.04,8.43 3.38,5.059 9.44,7.41 10.45,14.16 0.67,2.695 4.05,6.074 1.68,9.434 l 2.37,3.047 -0.67,0.664 c 1.68,2.363 -0.35,7.421 2.35,9.453 0.34,9.422 -0.67,19.207 1.01,27.636 -0.34,22.254 0.68,45.516 -1.01,66.758 3.38,1.348 0.34,4.047 0,6.407 1.01,8.425 -2.02,19.218 2.36,24.613 -1.01,4.383 2.02,5.394 3.03,7.758 2.7,2.023 6.07,0.336 8.1,-1.688" /><path
         id="path24"
         style="fill:#f8d6ed;fill-opacity:1;fill-rule:nonzero;stroke:none"
         d="m 672.344,465.426 c -0.68,-9.774 1.011,-20.903 1.347,-31.356 2.024,-2.355 0,-7.418 1.684,-10.113 -0.672,-9.777 1.012,-17.871 1.688,-26.973 1.687,-3.371 -0.34,-9.105 1.687,-12.132 5.059,-1.016 7.418,0 12.133,0.336 3.039,-1.684 7.754,1.679 10.449,-1.684 6.074,2.351 12.477,-0.336 18.551,-0.68 3.371,-2.363 8.43,-2.363 12.472,-3.375 2.032,-1.683 6.075,0 7.75,-1.683 1.692,4.043 2.024,8.089 3.04,12.136 0.683,2.36 -2.352,3.375 0,4.723 0.339,20.23 2.023,34.727 1.347,55.973 1.016,4.711 1.692,9.445 2.696,14.156 0,4.383 2.707,6.746 4.05,10.117 2.024,2.699 2.356,-1.348 4.375,-1.348 4.399,-7.082 1.352,-19.562 3.047,-27.984 2.016,-3.375 0,-9.445 1.684,-12.476 0.332,-3.032 -0.676,-7.079 1.011,-9.106 -0.679,-10.453 1.008,-19.219 1.348,-28.656 1.684,-1.012 0.664,-3.711 1.008,-5.735 l -1.008,-0.332 c 2.024,-3.379 -0.683,-10.121 2.695,-12.48 8.774,0.68 14.504,-2.352 19.219,-7.078 0,-3.371 -3.035,-4.043 -4.715,-6.067 -5.058,1.008 -7.422,-1.687 -12.48,-0.683 -3.379,-3.028 0.676,-5.731 -0.676,-9.766 2.695,-22.265 5.395,-49.57 1.008,-71.816 -3.711,-6.082 -8.43,-11.133 -17.859,-9.442 -3.04,1.336 -9.102,1.68 -10.122,6.395 -2.031,5.734 -2.695,12.141 -2.363,19.562 -2.359,2.364 0.332,2.364 -1.687,4.727 1.687,1.004 1.687,4.043 1.687,6.394 -1.015,1.692 1.692,7.754 -1.687,9.114 3.379,9.773 -0.332,24.949 3.379,35.066 -0.34,1.68 0.339,4.707 -1.692,5.059 -18.875,-1.024 -33.035,-8.094 -53.601,-6.746 -2.7,-1.692 0.668,-3.371 -0.336,-6.407 1.683,-3.039 0,-8.769 1.683,-11.796 1.348,-11.797 0.668,-25.625 0.668,-38.45 h -0.332 c -0.336,-3.699 -0.679,-10.449 -2.703,-14.5 -3.703,-5.058 -8.762,-10.109 -18.199,-8.086 -4.387,-1.007 -6.406,1.688 -10.453,1.004 -0.676,3.711 -5.735,3.711 -5.059,8.438 -2.355,4.719 -2.015,11.465 -3.039,17.199 -1.348,4.383 2.363,7.07 0,10.789 1.024,5.391 -2.019,14.492 1.356,19.551 -1.012,6.406 -1.012,15.508 0,21.914 1.007,5.734 1.007,12.148 3.375,17.199 -0.68,3.711 1.003,9.438 1.679,14.164 0.676,10.449 2.024,21.231 2.024,31.352 h -0.336 c 4.383,12.14 1.347,33.043 2.363,44.168 4.379,1.343 -2.027,5.394 2.355,6.742 -0.671,5.394 3.711,7.422 5.735,11.121 5.394,-0.668 5.058,-7.41 7.75,-10.449" /><path
         id="path26"
         style="fill:#f8d6ed;fill-opacity:1;fill-rule:nonzero;stroke:none"
         d="m 254.602,453.961 c 9.097,-5.727 15.511,-14.488 19.558,-24.273 1.004,-9.442 7.41,-15.168 8.086,-24.61 3.035,-1.008 -0.336,-6.066 3.035,-7.078 0.34,-6.074 3.035,-12.48 1.012,-18.887 2.359,-6.402 -1.348,-12.133 0,-19.554 -4.047,-1.692 -1.012,-9.102 -4.047,-11.457 0,-1.688 0.336,-3.379 -1.348,-3.711 -2.027,-11.465 -9.437,-17.871 -14.16,-27.657 -6.406,-7.754 -12.468,-17.187 -22.925,-20.222 -2.7,-2.364 -7.758,-1.348 -10.118,-4.043 -5.058,-0.676 -10.453,-1.692 -15.507,-2.364 -1.008,0.333 -3.375,1.688 -4.047,0 -7.758,-0.332 -14.832,0.333 -20.903,2.364 -10.793,1.347 -16.523,10.117 -23.261,17.195 0,5.723 -6.075,6.066 -7.086,10.781 -3.371,3.711 -2.692,10.118 -6.407,13.489 -0.671,7.078 -2.019,13.152 -5.054,18.543 1.008,4.718 -1.684,10.8 -0.672,17.199 1.68,0.672 1.347,2.363 0.672,3.367 -1.008,3.711 2.363,8.766 0,13.492 1.347,5.055 4.05,9.438 4.05,15.508 1.004,5.391 4.719,8.766 5.727,14.16 2.02,6.406 6.066,11.801 8.77,17.527 1.683,1.692 4.043,0.676 5.39,-0.667 0.672,-12.473 -7.418,-18.883 -5.726,-32.032 -1.356,-6.742 -0.34,-15.176 -0.68,-22.586 2.023,-1.347 -1.012,-6.074 2.363,-6.074 -0.676,-7.07 3.703,-10.793 5.731,-15.84 2.691,-3.722 4.043,-8.097 8.086,-11.125 1.351,-3.047 5.402,-3.379 7.086,-6.414 6.062,0 7.753,-6.406 15.507,-4.043 4.383,-1.347 10.118,-0.332 15.508,-0.676 6.406,4.387 14.496,6.739 18.883,13.829 6.742,1.339 7.422,9.093 11.461,13.144 1.687,7.414 2.359,15.508 5.398,21.922 1.012,5.719 -1.687,9.094 -1.351,14.152 -1.348,3.711 -1.012,8.098 -3.363,10.797 1.003,6.738 -1.348,10.781 -4.055,14.828 -0.668,5.735 -5.059,10.118 -9.777,12.477 -4.047,5.058 -12.137,5.058 -19.215,6.07 -3.707,-1.012 -7.082,-1.687 -10.793,-2.363 -2.36,-1.008 -5.735,-1.348 -6.739,-4.043 -3.378,-0.68 -6.75,-6.07 -10.117,-1.691 -2.695,7.421 4.715,7.421 5.735,12.48 1.687,1.012 2.695,2.691 5.05,3.371 4.723,9.438 19.563,4.715 29.336,7.078 4.723,-0.672 9.446,-1.683 14.164,-2.363 h 6.743" /><path
         id="path28"
         style="fill:#f8d6ed;fill-opacity:1;fill-rule:nonzero;stroke:none"
         d="m 1412.41,298.199 c 1.02,2.356 -1.69,5.391 -0.68,9.446 -3.69,5.722 1.01,17.859 -4.03,22.918 -0.68,3.71 -2.04,7.753 -2.04,11.464 1.02,1.36 3.38,2.364 3.72,4.719 0,5.731 -5.74,7.09 -9.78,8.77 -1.01,5.73 -4.04,9.785 -5.73,15.507 -0.33,3.036 1.34,7.754 -1.68,8.77 -0.34,5.395 -4.39,8.086 -5.4,13.148 2.36,8.09 -4.72,9.438 -3.37,16.52 -3.71,3.031 -2.71,9.777 -4.04,14.496 -2.7,1.688 -1.35,6.074 -4.06,7.758 0.33,4.379 -4.04,5.726 -4.72,9.777 1.02,1.012 -2.02,4.047 -1.01,5.059 -4.38,2.695 -1.35,10.785 -5.73,13.492 -0.68,3.363 -3.37,5.047 -5.39,7.746 h -15.85 c 0,-2.027 -3.03,-1.687 -3.71,-2.027 v 0.34 c -4.38,1.015 -6.74,-4.387 -10.12,-2.36 -4.72,-1.683 -6.4,-6.406 -11.8,-7.418 -4.04,0.68 -2.69,-4.043 -5.06,-5.054 -4.71,-4.383 -7.41,-9.778 -10.79,-15.512 2.02,-7.414 -4.04,-9.106 -3.03,-15.844 -3.03,-5.394 -1.01,-14.496 -5.05,-19.223 1.34,-7.414 -1.35,-11.804 -4.05,-16.183 -1.34,-8.758 -3.03,-17.188 -4.72,-25.625 -3.7,-3.035 -2.7,-9.442 -4.05,-14.16 -3.36,-3.711 -3.03,-10.106 -6.4,-13.828 0,-7.411 -4.72,-11.122 -5.06,-18.192 -3.04,-2.375 -2.35,-6.406 -4.72,-9.113 -0.33,-4.383 -1.69,-7.754 -2.36,-11.797 2.03,-3.711 6.07,-6.074 10.79,-6.414 0.34,0.34 -0.33,1.016 0.34,1.355 5.05,0 3.03,6.407 7.76,6.739 1.68,5.402 7.41,7.422 7.08,14.504 h 1 c 2.02,3.027 2.7,7.41 5.73,9.773 -1.34,4.719 2.03,5.734 3.37,8.77 4.73,2.023 4.73,8.097 9.11,10.449 3.71,1.015 10.11,-2.02 11.47,2.363 h 44.16 l 2.02,-1.348 c 2.03,0 3.71,-0.339 4.73,1.348 4.71,1.348 6.74,-1.348 8.08,-4.383 2.7,-9.445 7.08,-17.199 10.46,-26.301 6.07,-1.003 1.35,-10.449 7.41,-11.796 -1.67,-7.422 6.08,-7.762 5.74,-14.5 1.34,-2.032 3.37,-4.387 6.4,-4.387 3.37,-0.672 5.39,2.355 6.08,4.726 -2.37,1.34 0.33,2.356 0.67,3.372 -0.34,4.042 1.35,9.773 -1.69,12.136 m -69.45,64.063 c -5.73,1.347 -13.16,0.332 -19.9,0.664 -1.68,0.683 -2.36,2.375 -4.71,1.691 0,-1.183 -1.14,-0.89 -1.84,-1.054 l -0.52,-0.637 0.52,0.637 c 3.19,3.816 6.15,7.5 4.87,14.203 2.02,5.402 6.4,8.769 8.09,14.16 -1.35,4.722 3.37,5.394 1.68,10.117 1.02,4.723 4.39,7.754 8.1,9.773 5.73,0 6.07,-5.73 10.11,-8.093 3.37,-6.739 8.43,-11.797 8.1,-20.555 3.03,-3.039 3.7,-7.762 5.72,-11.805 1.35,-4.726 4.06,-8.437 4.72,-13.144 -8.09,-1.356 -17.53,1.34 -24.94,4.043" /><path
         id="path30"
         style="fill:#f8d6ed;fill-opacity:1;fill-rule:nonzero;stroke:none"
         d="m 446.445,296.18 c -1.683,0.332 -1.683,2.351 -1.683,4.043 -2.028,2.363 1.004,8.086 -2.36,9.441 1.012,11.125 -1.351,19.895 -4.047,28.652 -5.394,4.043 3.028,6.075 1.684,10.793 -2.695,0.672 -3.367,4.383 -6.406,4.383 -2.699,5.735 -5.059,11.125 -7.418,16.856 0.676,5.734 -1.352,9.101 -2.699,12.82 h 0.336 c -3.7,4.375 -6.063,9.773 -5.051,17.523 h -0.676 c -0.336,2.704 -3.711,4.047 -2.359,8.09 -5.059,1.016 -0.34,8.77 -4.047,10.797 -1.012,7.414 -5.735,12.809 -7.422,19.895 -3.363,0 0.348,5.05 -3.027,5.05 -0.684,3.711 -2.368,6.411 -1.696,11.129 -5.058,1.684 -3.027,8.766 -8.086,10.11 l -1.683,2.027 c -6.41,-0.672 -15.172,1.684 -18.543,-2.027 v 0.34 c -7.418,0.675 -12.477,-1.012 -18.211,-2.36 -0.68,-3.707 -5.399,-2.355 -5.738,-6.07 -5.047,-2.695 -6.739,-8.426 -10.45,-11.797 -1.343,-2.027 -0.672,-5.73 -3.367,-6.406 1.012,-4.383 -1.687,-6.074 -0.676,-10.117 -5.386,-5.059 -3.371,-15.172 -5.054,-22.586 -5.055,-3.715 0.336,-14.168 -4.387,-18.211 -2.016,-4.047 -2.363,-8.426 -4.379,-12.133 2.016,-5.399 -3.375,-5.399 -1.687,-10.789 0.339,-5.403 -3.372,-8.098 -3.036,-13.488 -3.039,-5.059 -4.382,-11.133 -5.73,-17.196 -2.024,-1.679 -3.039,-4.054 -2.359,-7.765 -4.723,-6.739 -5.055,-16.512 -9.778,-22.918 1.348,-5.735 -2.699,-7.082 -2.363,-11.797 1.012,-3.379 4.051,-5.059 6.402,-7.09 5.403,-2.356 4.047,4.051 8.434,3.035 2.019,6.074 8.769,8.77 9.777,15.508 -0.672,4.726 4.051,5.742 4.719,9.785 3.367,3.711 3.031,10.117 7.082,13.477 3.035,-0.332 1.684,4.726 5.059,4.054 l 0.335,-0.675 c 13.149,0 25.961,-0.34 36.415,3.371 4.378,0.683 8.765,1.347 13.152,2.363 5.394,1.004 11.457,1.004 16.18,3.035 2.695,0 6.742,0.676 6.406,-3.035 2.363,-1.348 2.019,-4.043 3.375,-6.074 0.672,-7.414 4.379,-11.797 8.086,-17.188 -0.668,-5.39 6.066,-6.738 4.719,-13.156 3.039,-0.672 1.687,-5.059 3.378,-7.07 0.332,-4.395 5.395,-4.395 4.719,-10.118 3.367,-0.683 2.36,-6.074 7.418,-4.726 3.371,-1.348 4.383,1.691 5.059,3.711 2.019,4.043 1.683,9.101 1.683,14.504 m -72.492,66.082 c -5.39,1.347 -12.473,0.332 -18.543,0.664 -1.683,0.683 -2.359,2.375 -4.722,1.691 2.027,7.422 8.097,12.137 10.457,19.891 4.046,1.012 3.371,7.082 7.757,8.09 2.02,0 3.7,0.343 4.383,2.367 3.363,-2.703 4.039,-1.688 7.75,-3.711 2.695,-4.387 7.078,-7.75 8.77,-12.809 2.019,-8.097 8.758,-12.48 9.769,-21.25 -9.769,0.34 -17.527,2.703 -25.621,5.067" /></g></g></svg>