<?xml version="1.0" encoding="UTF-8" standalone="no"?>
<svg
   xmlns:dc="http://purl.org/dc/elements/1.1/"
   xmlns:cc="http://creativecommons.org/ns#"
   xmlns:rdf="http://www.w3.org/1999/02/22-rdf-syntax-ns#"
   xmlns:svg="http://www.w3.org/2000/svg"
   xmlns="http://www.w3.org/2000/svg"
   viewBox="0 0 141.39999 129.61333"
   height="129.61333"
   width="141.39999"
   xml:space="preserve"
   id="svg2"
   version="1.1"><metadata
     id="metadata8"><rdf:RDF><cc:Work
         rdf:about=""><dc:format>image/svg+xml</dc:format><dc:type
           rdf:resource="http://purl.org/dc/dcmitype/StillImage" /></cc:Work></rdf:RDF></metadata><defs
     id="defs6" /><g
     transform="matrix(1.3333333,0,0,-1.3333333,0,129.61333)"
     id="g10"><g
       transform="scale(0.1)"
       id="g12"><path
         id="path14"
         style="fill:#f8d6ed;fill-opacity:1;fill-rule:nonzero;stroke:none"
         d="M 636.066,614.141 C 561.523,463.777 440.352,375.633 277.117,342.93 435.523,352.207 568.227,298.176 676.523,182.383 593.867,319.988 582.805,464.004 636.066,614.141 Z M 1060.41,149.051 C 1061.1,83.3867 1017.33,22.8438 949.453,5.30078 898.703,-7.8125 852.883,3.90625 811.32,34.8438 765.012,69.3164 726.777,111.418 692.988,158 c -6.394,8.816 -15.672,15.887 -24.566,22.488 -33.098,24.563 -70.266,39.696 -110.988,46.035 -55.387,8.622 -109.278,3.692 -160.563,-19.765 C 365.48,192.402 336.879,173.555 317.711,143.867 307.41,127.91 299.379,110.488 290.063,93.8789 276.484,69.668 259.645,48.0469 236.922,31.7969 215.363,16.3867 190.93,8.67969 164.52,6.26953 128.082,2.92969 94.8711,11.6328 64.832,32.0195 30.5234,55.293 9.44531,87.9102 2.32422,128.508 -10.0508,199.133 28.1406,264.891 89.0586,294.141 c 37.7934,18.156 77.3594,30.781 118.4614,38.437 20.601,3.84 41.742,4.988 62.16,9.492 12.972,2.86 25.367,9.043 37.519,14.793 67.633,32.004 111.739,85.305 138.453,154.153 13.438,34.617 18.071,70.566 15.84,107.445 -2.039,33.723 -14.133,63.801 -33.851,91.055 -17.102,23.644 -31.157,48.961 -38.047,77.515 -10.422,43.125 -1.422,82.957 23.203,119.215 24.262,35.715 58.348,57.324 100.887,63.957 42.05,6.563 80.566,-3.672 114.25,-29.89 32.918,-25.637 52.379,-59.7 57.937,-100.848 2.18,-16.129 1.633,-32.918 0.098,-49.192 -3.781,-39.98 -13.133,-78.878 -26.406,-116.777 -5.215,-14.894 -11.844,-29.336 -16.36,-44.43 -9.351,-31.371 -11.836,-63.464 -8.328,-96.121 6.047,-56.347 28.563,-105.562 64.121,-149.05 31.113,-38.067 69.688,-65.426 117.559,-78.473 19.218,-5.246 38.918,-5.051 58.664,-3.813 36.719,2.317 73.086,-0.097 105.996,-17.996 41.715,-22.675 66.955,-58.445 76.735,-104.972 1.05,-4.93 1.96,-9.93 2.38,-14.95 0.4,-4.843 0.08,-9.757 0.08,-14.64" /></g></g></svg>