<?xml version="1.0" encoding="UTF-8" standalone="no"?>
<svg
   xmlns:dc="http://purl.org/dc/elements/1.1/"
   xmlns:cc="http://creativecommons.org/ns#"
   xmlns:rdf="http://www.w3.org/1999/02/22-rdf-syntax-ns#"
   xmlns:svg="http://www.w3.org/2000/svg"
   xmlns="http://www.w3.org/2000/svg"
   viewBox="0 0 112.88 128.92"
   height="128.92"
   width="112.88"
   xml:space="preserve"
   id="svg2"
   version="1.1"><metadata
     id="metadata8"><rdf:RDF><cc:Work
         rdf:about=""><dc:format>image/svg+xml</dc:format><dc:type
           rdf:resource="http://purl.org/dc/dcmitype/StillImage" /></cc:Work></rdf:RDF></metadata><defs
     id="defs6" /><g
     transform="matrix(1.3333333,0,0,-1.3333333,0,128.92)"
     id="g10"><g
       transform="scale(0.1)"
       id="g12"><path
         id="path14"
         style="fill:#f8d6ed;fill-opacity:1;fill-rule:nonzero;stroke:none"
         d="m 423.328,829.004 h -0.351 c -121.071,0 -164.039,-92.094 -164.039,-92.094 0,0 9.195,-30.019 76.445,-74.433 54.715,-36.164 72.597,-61.465 87.785,-106.914 15.156,45.449 33.043,70.75 87.754,106.914 67.266,44.414 76.433,74.433 76.433,74.433 0,0 -42.957,92.094 -164.027,92.094 m -0.055,-160.348 h -0.105 -0.137 c -69.793,0 -129.91,68.254 -129.91,68.254 0,0 43.43,68.281 129.91,68.281 h 0.137 0.105 c 86.485,0 129.903,-68.281 129.903,-68.281 0,0 -60.145,-68.254 -129.903,-68.254" /><path
         id="path16"
         style="fill:#f8d6ed;fill-opacity:1;fill-rule:nonzero;stroke:none"
         d="m 422.977,795.094 c -32.879,0 -59.567,-26.321 -59.567,-58.778 0,-32.472 26.688,-58.793 59.567,-58.793 32.878,0 59.566,26.321 59.566,58.793 0,32.457 -26.688,58.778 -59.566,58.778 m -13.071,-67.199 c -11.203,0 -20.246,9.546 -20.246,21.355 0,11.797 9.043,21.355 20.246,21.355 11.188,0 20.242,-9.558 20.242,-21.355 0,-11.809 -9.054,-21.355 -20.242,-21.355" /><path
         id="path18"
         style="fill:#f8d6ed;fill-opacity:1;fill-rule:nonzero;stroke:none"
         d="m 174.305,758.785 c 66.765,57.68 153.73,92.524 248.832,92.524 95.207,0 182.218,-34.942 248.984,-92.637 9.406,8.586 17.793,17.211 24.785,25.762 -24.48,30.441 -33.406,65.976 -33.035,84.363 -19.68,-15.852 -58.43,-17.695 -101.242,-4.715 -4.082,1.449 -8.191,2.859 -12.313,4.16 -45.207,16.473 -93.238,49.012 -127.285,98.668 -34.547,-50.344 -83.496,-83.14 -129.23,-99.363 -2.196,-0.715 -4.395,-1.473 -6.563,-2.219 -44.308,-14.277 -84.8,-12.851 -105.097,3.469 0.382,-18.289 -8.5,-53.652 -32.774,-83.996 6.996,-8.633 15.477,-17.356 24.938,-26.016" /><path
         id="path20"
         style="fill:#f8d6ed;fill-opacity:1;fill-rule:nonzero;stroke:none"
         d="m 803.969,476.117 c 0.027,-1.883 0.078,-3.793 0.078,-5.722 0,-210.336 -170.539,-380.9028 -380.895,-380.9028 -210.351,0 -380.8825,170.5668 -380.8825,380.9028 0,2.039 0.0235,4 0.0586,5.996 -11.7187,11.945 -22.4336,25 -31.6211,39.101 C 7.84375,494.371 6.33984,472.73 6.33984,450.73 6.33984,119.48 423.152,0 423.152,0 c 0,0 416.801,128.699 416.801,450.73 0,21.891 -1.465,43.379 -4.305,64.438 -9.171,-14.113 -19.941,-27.102 -31.679,-39.051" /><path
         id="path22"
         style="fill:#f8d6ed;fill-opacity:1;fill-rule:nonzero;stroke:none"
         d="M 326.871,627.352 C 253.121,674.84 112.273,752.109 107.473,827.066 -197.531,509.922 243.563,385.93 243.563,385.93 c 0,0 -97.043,-20.91 -97.043,-88.032 0,-115.886 167.945,-165.972 167.945,-165.972 0,0 97.609,31.48 97.609,281.441 0,109.961 -17.383,170.328 -85.203,213.985" /><path
         id="path24"
         style="fill:#f8d6ed;fill-opacity:1;fill-rule:nonzero;stroke:none"
         d="M 519.691,627.352 C 593.422,674.84 734.32,752.109 739.105,827.066 1044.09,509.922 603.02,385.93 603.02,385.93 c 0,0 97.031,-20.91 97.031,-88.032 0,-115.886 -167.949,-165.972 -167.949,-165.972 0,0 -97.586,31.48 -97.586,281.441 0,109.961 17.351,170.328 85.175,213.985" /></g></g></svg>