<?xml version="1.0" encoding="UTF-8" standalone="no"?>
<svg
   xmlns:dc="http://purl.org/dc/elements/1.1/"
   xmlns:cc="http://creativecommons.org/ns#"
   xmlns:rdf="http://www.w3.org/1999/02/22-rdf-syntax-ns#"
   xmlns:svg="http://www.w3.org/2000/svg"
   xmlns="http://www.w3.org/2000/svg"
   viewBox="0 0 232.73334 34.573334"
   height="34.573334"
   width="232.73334"
   xml:space="preserve"
   id="svg2"
   version="1.1"><metadata
     id="metadata8"><rdf:RDF><cc:Work
         rdf:about=""><dc:format>image/svg+xml</dc:format><dc:type
           rdf:resource="http://purl.org/dc/dcmitype/StillImage" /></cc:Work></rdf:RDF></metadata><defs
     id="defs6" /><g
     transform="matrix(1.3333333,0,0,-1.3333333,0,34.573333)"
     id="g10"><g
       transform="scale(0.1)"
       id="g12"><path
         id="path14"
         style="fill:#f8d6ed;fill-opacity:1;fill-rule:nonzero;stroke:none"
         d="m 724.969,259.25 c 3.746,-5.402 16.64,-0.828 14.976,-11.23 -0.832,-4.165 -2.492,-7.493 -6.246,-9.161 -9.98,-0.828 -16.64,-6.238 -26.207,-7.062 -6.25,-3.758 -15.812,-4.582 -21.222,-8.742 -19.141,-13.739 -41.2,-25.391 -48.274,-49.942 -3.328,-2.086 -2.078,-7.07 -4.992,-8.746 -2.918,-12.894 -10.406,-24.551 -9.16,-38.273 -3.746,-20.403 6.242,-34.5432 10.41,-51.6135 3.316,-4.9805 5.824,-10.3907 11.644,-12.8907 16.235,-18.3203 33.711,-36.621 64.086,-35.789 2.5,-3.75 8.325,-1.25 10.407,-4.1602 6.66,-0.4101 14.148,0.8282 19.972,-0.832 5.41,2.4922 9.989,-0.8398 13.317,-3.7422 0.836,-3.3281 -0.414,-10.41015 -3.328,-12.91015 -6.661,-4.16015625 -17.067,-4.988281 -25.383,-2.91016 -7.91,-0.828121 -13.321,0.83204 -20.817,0.83204 -3.324,2.91796 -8.726,3.32812 -13.722,3.73828 -12.489,-0.41016 -16.239,9.99219 -27.465,11.24999 -5.828,-1.2578 -7.078,6.6641 -11.656,4.1641 -5.411,2.5 -9.153,7.8984 -14.977,9.9804 -1.25,3.75 -4.996,4.1563 -7.91,7.0782 -2.496,4.1601 -7.902,6.2382 -10.82,10.3984 -0.414,2.9141 -3.743,2.4922 -4.997,4.5742 -2.078,9.1602 -12.48,12.4883 -14.144,21.2188 -6.66,4.5898 -7.488,12.9101 -10.82,19.5703 -2.082,11.2302 -4.575,25.3872 -3.325,37.0352 0.411,6.234 -0.839,14.152 1.243,19.559 2.914,3.742 1.668,10.402 4.992,14.148 -0.414,7.484 5.414,11.645 5.414,18.727 2.91,3.746 6.66,7.906 6.66,13.734 6.656,4.57 5.41,15.812 13.313,19.141 5.824,10.394 18.316,13.312 23.308,24.132 5.402,7.078 17.059,5.411 22.469,12.899 6.242,1.254 10.41,3.75 15.808,5.824 h 47.446" /><path
         id="path16"
         style="fill:#f8d6ed;fill-opacity:1;fill-rule:nonzero;stroke:none"
         d="m 1123.62,255.512 c 9.99,0.824 17.9,-1.664 26.64,-2.086 0,-4.156 5.82,-0.41 7.07,-2.91 1.25,-3.75 6.24,-7.075 2.92,-12.071 -0.42,-5.824 -2.5,-10.816 -6.25,-14.558 -5,-2.082 -5.82,-9.157 -10.81,-10.821 -4.58,-1.668 -9.17,-5.832 -13.32,-4.168 -5.83,-1.242 -12.48,2.082 -19.98,0.836 -3.73,-1.664 -3.33,-0.418 -8.32,-0.836 -9.98,1.25 -16.65,-2.074 -26.63,-0.828 -1.26,-4.164 -7.49,-0.836 -9.57,-3.332 -9.99,-1.25 -19.56,-4.152 -22.89,-13.312 1.26,-5 -3.33,-7.906 0,-12.071 -1.25,-9.992 4.57,-15.816 10.82,-20.808 7.9,-2.492 16.64,0 23.3,2.078 2.5,0 5.83,-0.828 6.25,1.672 7.91,1.242 17.05,1.668 22.47,6.242 7.49,-0.414 11.23,4.996 19.97,2.91 6.66,-5.406 9.99,-12.48 9.99,-22.472 -3.75,-3.329 -0.83,-9.985 -6.25,-12.481 -6.66,-6.66 -15.81,-1.664 -25.38,-4.578 -3.75,1.25 -11.65,2.488 -14.57,-0.832 -13.31,-0.414 -28.29,1.242 -36.61,-6.242 -5.83,-17.485 1.25,-28.7112 6.65,-42.4534 -1.66,-7.9101 3.75,-10.4023 3.34,-17.4687 2.91,-2.0821 1.66,-7.0821 4.99,-9.1602 3.74,-9.1601 14.56,-10.8242 23.31,-14.1523 3.33,0.4179 5.4,2.9179 9.56,2.0781 1.25,-2.9102 5.84,-2.0781 8.74,-2.0781 6.24,6.2422 21.64,-0.4219 27.47,5.8281 12.06,-0.8359 28.29,7.4922 32.45,-5.8281 5,-6.2422 3.75,-21.2188 1.25,-28.293 -2.92,-2.0781 -2.92,-6.23827 -4.16,-9.16015 l -3.33,-4.16015625 h -37.86 C 1120.71,4.99609 1111.56,2.49609 1106.57,6.23828 c -8.33,2.08985 -18.32,2.91797 -25.8,7.07812 -9.99,6.2422 -26.22,3.3242 -36.62,9.9844 -12.9,0.4297 -22.89,6.25 -33.3,10.4101 -2.08,2.9063 -2.08,7.0664 -2.08,12.0664 0.84,4.1524 2.92,7.4844 2.08,12.9024 6.25,2.9101 0.42,14.5586 4.17,17.4805 1.25,3.3281 0.83,7.9023 0.83,12.4804 2.08,9.1524 5.41,21.2184 -2.91,27.4614 -1.67,2.496 -5,4.996 -7.08,7.492 -2.08,8.324 3.75,9.984 4.99,15.816 7.08,2.492 11.24,8.317 12.08,16.227 3.74,2.496 1.24,9.98 2.08,14.976 -3.75,0.836 -1.25,5.825 -2.08,8.742 -2.5,13.313 -22.47,11.239 -17.9,29.133 4.99,4.992 13.32,4.157 17.9,9.989 5.82,2.078 12.48,2.914 17.05,7.074 13.74,2.488 20.81,13.308 33.29,17.89 2.92,2.914 9.58,1.664 11.65,5.829 7.08,1.246 11.66,5.41 17.9,7.906 7.07,-0.414 16.23,1.664 20.8,-1.664" /><path
         id="path18"
         style="fill:#f8d6ed;fill-opacity:1;fill-rule:nonzero;stroke:none"
         d="m 155.691,253.848 c 4.997,-4.16 -1.668,-7.91 -1.25,-12.903 -3.328,-4.578 -10.82,-2.914 -12.898,-9.148 -7.902,-3.34 -14.57,-9.16 -22.473,-12.082 -3.746,-3.738 -9.988,-4.57 -14.984,-6.649 -0.414,-3.75 -4.5704,-0.836 -5.8204,-3.332 C 90.3555,197.664 74.125,194.34 67.0547,181.855 57.8984,172.277 54.9844,158.547 46.6602,148.563 44.1641,142.316 43.3281,135.246 42.5,127.336 c -5.4062,-7.078 -1.668,-22.887 -1.668,-30.3868 3.3321,-4.9765 0.8399,-14.1367 5.8282,-18.3008 1.25,-5.4101 5.4101,-8.3281 7.9101,-12.4882 0.8281,-3.7383 6.2383,-3.7383 7.0625,-7.0704 5.4219,-4.1601 9.586,-10.8125 14.1563,-15.8203 10.8203,-6.2304 21.2265,-13.3086 35.7929,-14.5586 3.742,-6.2421 16.641,0 20.801,-5.4101 2.078,1.668 4.578,-1.25 6.66,-1.6602 7.074,-0.4101 15.398,0.8282 21.645,-0.832 2.492,0 8.734,-0.418 10.816,-3.7422 2.492,-2.918 -0.836,-5.8281 -0.836,-8.73827 -2.91,-3.75 -5.41,-7.500005 -11.234,-7.08204 -12.899,-2.90625 -25.387,0.42188 -38.282,0.83204 -2.918,2.5 -6.66,3.73828 -11.656,2.91796 C 97.8516,5.81641 92.8438,15.3984 81.1992,16.2305 c -2.914,1.25 -7.4883,0.8359 -7.9101,4.5781 -9.5664,1.6602 -14.9766,8.3203 -22.0508,13.3203 -10.8242,9.1406 -23.7188,19.1328 -29.961,32.0313 -4.996,3.3398 -6.246,10.4101 -11.2382,13.7382 -1.66801,5.8243 -3.74222,12.0743 -6.66019,17.0508 1.2539,4.5818 -2.906254,7.9218 -1.24219,10.4098 -3.32813,6.243 -2.0781262,17.485 -0.83594,24.559 -2.078124,5.82 3.33203,6.242 2.07813,12.062 0,2.079 3.33984,4.165 0.83984,5.829 -0.83984,7.91 6.24215,10.406 4.98828,18.73 7.07427,3.738 2.49607,14.559 9.15627,18.727 2.914,5.824 5.4101,11.652 10.8203,15.808 1.6641,4.996 7.0703,8.324 7.9102,14.153 6.2343,7.484 13.3085,13.73 17.8906,22.054 7.0742,4.16 14.1445,10.407 21.2187,11.235 7.0782,1.664 9.5782,-3.75 15.4024,-1.246 h 7.0703 c 2.0822,-2.504 3.7462,0.832 5.8242,1.246 7.082,1.664 13.32,4.574 21.645,4.996 2.492,0 6.238,-0.832 7.902,0.824 7.074,-0.824 17.066,2.086 21.644,-2.488" /><path
         id="path20"
         style="fill:#f8d6ed;fill-opacity:1;fill-rule:nonzero;stroke:none"
         d="m 1255.13,252.18 c 0.42,-4.575 2.91,-8.325 2.91,-13.321 2.09,-7.488 0,-17.89 4.17,-23.3 -1.67,-2.079 -1.67,-7.071 0,-8.735 1.66,-2.504 -0.42,-6.664 0.82,-9.988 -0.41,-8.742 0.43,-16.231 2.92,-22.891 -1.66,-5.406 2.5,-10.816 1.24,-17.89 4.58,-7.078 -1.24,-21.649 5.01,-27.469 -0.84,-14.145 1.24,-26.215 1.66,-39.5352 2.49,-3.7383 3.74,-8.3203 3.32,-14.1524 2.5,-0.8281 1.25,-3.3203 2.92,-4.9882 2.49,-7.4883 9.98,-9.9883 15.81,-14.1485 19.56,-5.832 23.72,9.9883 42.03,5.8281 4.58,-2.9101 11.24,-5.8281 9.99,-13.3125 -1.25,-5.4179 0.83,-11.6601 0,-18.3164 0.41,-5.8203 6.23,-9.5703 2.91,-15.8125 l -4.99,-5.82027 c -11.23,-1.67188 -18.31,2.07817 -27.47,3.73047 -4.58,5.4219 -14.98,2.0898 -19.98,6.6602 -5.82,4.582 -16.64,1.6718 -24.96,2.5117 -4.16,2.5 -9.15,3.3203 -15.4,2.9101 -5.41,2.4883 -14.14,3.3282 -19.56,2.918 -4.15,0.4102 -7.9,2.4922 -12.49,2.9023 -4.99,0.418 -7.49,3.75 -13.32,3.3282 -3.32,0.4218 -6.24,2.5 -7.07,5.4101 -0.84,3.75 0.83,5.8281 2.5,7.9024 2.91,-0.8243 3.75,1.25 5.4,2.0859 3.75,-3.3359 3.75,2.9141 8.74,0.832 9.17,2.0821 8.34,12.9024 12.5,19.5586 -2.91,2.9102 0.42,5.8203 0.83,9.1524 0.84,7.4922 -1.66,14.5703 -1.66,19.9804 -2.5,2.0821 -0.83,8.3201 -1.25,12.4801 4.16,3.332 -0.42,8.747 0.83,14.981 0.42,2.5 -1.25,7.07 1.67,7.906 2.08,13.735 -2.08,31.215 3.32,42.445 -1.24,3.332 -2.07,11.243 1.25,13.735 -3.75,3.332 -1.25,10.402 -2.07,15.812 2.49,0 2.07,3.328 2.07,5.41 -3.75,5.829 -1.25,16.235 -2.07,24.559 2.07,3.32 3.74,7.902 3.32,12.481 2.08,1.668 2.5,10.402 9.99,7.492 l 4.16,-3.332" /><path
         id="path22"
         style="fill:#f8d6ed;fill-opacity:1;fill-rule:nonzero;stroke:none"
         d="m 1429.9,252.18 c 3.33,-8.739 4.58,-17.895 3.75,-29.125 2.49,-6.246 3.74,-15.399 3.33,-21.645 0.41,-7.902 2.49,-14.566 1.66,-23.301 1.67,-2.5 2.5,-4.574 2.08,-8.32 h -0.41 c 3.33,-2.914 -0.84,-12.902 3.33,-16.23 0.83,-8.321 -1.67,-18.727 2.08,-24.973 V 99.8711 c 4.15,-3.3281 0.41,-12.4805 2.9,-17.4805 -2.07,-7.9101 4.58,-9.5625 2.09,-17.4687 6.24,-6.6602 18.31,-4.5821 25.38,-9.1602 7.91,0 17.06,-0.832 23.72,0.8281 5.41,-4.1523 14.15,-3.3281 17.9,-10.3906 0.42,-6.25 7.9,-7.5 4.99,-16.2383 0,-6.6601 9.57,-15.8125 -0.42,-19.97262 -0.82,-0.42187 -0.42,-1.25 -0.42,-1.66015 -12.9,-2.92188 -19.97,4.98827 -31.62,0.82812 -9.15,4.16015 -23.72,0 -32.04,5.83205 -6.24,1.6523 -14.15,0.4101 -18.31,4.9805 -8.74,0.8398 -16.65,4.1718 -24.13,7.0898 -6.25,-1.668 -7.08,3.3203 -13.32,2.0703 -3.33,2.9102 -9.99,0.832 -12.9,5 0.42,3.7383 1.24,7.8984 3.75,10.3984 4.16,6.2422 11.65,9.1524 12.89,17.4727 0.84,3.3281 5,7.5 2.08,11.6484 l 2.92,3.75 -0.84,0.8321 c 2.09,2.9179 -0.41,9.1601 2.92,11.6601 0.42,11.6404 -0.83,23.7114 1.25,34.1134 -0.42,27.469 0.83,56.184 -1.25,82.402 4.16,1.664 0.42,4.992 0,7.903 1.25,10.402 -2.5,23.722 2.91,30.382 -1.25,5.411 2.5,6.661 3.74,9.571 3.33,2.5 7.49,0.418 9.99,-2.082" /><path
         id="path24"
         style="fill:#f8d6ed;fill-opacity:1;fill-rule:nonzero;stroke:none"
         d="m 829.832,240.527 c -0.832,-12.07 1.25,-25.797 1.668,-38.703 2.492,-2.906 0,-9.156 2.078,-12.48 -0.828,-12.071 1.25,-22.059 2.078,-33.289 2.082,-4.16 -0.414,-11.242 2.082,-14.977 6.246,-1.262 9.16,0 14.981,0.414 3.746,-2.082 9.57,2.074 12.894,-2.082 7.5,2.906 15.403,-0.418 22.899,-0.84 4.16,-2.914 10.402,-2.914 15.386,-4.164 2.508,-2.078 7.497,0 9.579,-2.078 2.078,4.992 2.5,9.988 3.75,14.985 0.828,2.914 -2.911,4.16 0,5.824 0.41,24.972 2.488,42.867 1.66,69.082 1.25,5.82 2.078,11.656 3.328,17.476 0,5.41 3.332,8.325 4.992,12.485 2.5,3.332 2.91,-1.664 5.41,-1.664 5.418,-8.739 1.66,-24.141 3.75,-34.539 2.488,-4.161 0,-11.657 2.078,-15.391 0.41,-3.75 -0.828,-8.742 1.25,-11.242 -0.84,-12.906 1.243,-23.727 1.672,-35.371 2.071,-1.25 0.821,-4.578 1.238,-7.075 l -1.238,-0.41 c 2.488,-4.172 -0.84,-12.496 3.321,-15.402 10.82,0.832 17.898,-2.914 23.718,-8.75 0,-4.152 -3.738,-4.984 -5.82,-7.477 -6.25,1.243 -9.16,-2.078 -15.398,-0.836 -4.172,-3.75 0.828,-7.082 -0.84,-12.074 3.328,-27.4685 6.66,-61.1717 1.25,-88.6326 -4.582,-7.49999 -10.403,-13.726556 -22.051,-11.64843 -3.75,1.64844 -11.231,2.07812 -12.481,7.89844 -2.511,7.07419 -3.332,14.98439 -2.921,24.14449 -2.915,2.9063 0.41,2.9063 -2.079,5.8282 2.079,1.2382 2.079,4.9882 2.079,7.8984 -1.25,2.082 2.082,9.5742 -2.079,11.2422 4.161,12.0703 -0.421,30.793 4.161,43.2693 -0.422,2.094 0.418,5.832 -2.082,6.25 -23.301,-1.258 -40.778,-9.9881 -66.161,-8.3279 -3.332,-2.0781 0.825,-4.1602 -0.418,-7.8984 2.082,-3.75 0,-10.8243 2.082,-14.5743 1.665,-14.5586 0.825,-31.6211 0.825,-47.4375 h -0.41 c -0.415,-4.5703 -0.84,-12.8945 -3.336,-17.9023 -4.571,-6.24219 -10.813,-12.468756 -22.461,-9.98047 -5.414,-1.250005 -7.911,2.07812 -12.903,1.23828 -0.832,4.58203 -7.078,4.58203 -6.246,10.42189 -2.906,5.8203 -2.488,14.1406 -3.746,21.2226 -1.664,5.4063 2.914,8.7266 0,13.3164 1.258,6.6524 -2.492,17.8829 1.664,24.1329 -1.25,7.9023 -1.25,19.1406 0,27.0507 1.25,7.0701 1.25,14.9801 4.172,21.2231 -0.84,4.574 1.238,11.644 2.074,17.476 0.832,12.899 2.496,26.207 2.496,38.699 h -0.414 c 5.41,14.985 1.664,40.782 2.914,54.512 5.411,1.664 -2.5,6.66 2.911,8.324 -0.833,6.66 4.578,9.157 7.078,13.731 6.664,-0.828 6.242,-9.149 9.566,-12.899" /><path
         id="path26"
         style="fill:#f8d6ed;fill-opacity:1;fill-rule:nonzero;stroke:none"
         d="m 314.238,226.375 c 11.235,-7.07 19.145,-17.887 24.141,-29.961 1.238,-11.656 9.148,-18.726 9.98,-30.371 3.75,-1.25 -0.418,-7.496 3.75,-8.738 0.414,-7.496 3.743,-15.403 1.243,-23.313 2.918,-7.898 -1.664,-14.976 0,-24.133 -4.993,-2.078 -1.243,-11.2262 -4.993,-14.1481 0,-2.0781 0.418,-4.1601 -1.668,-4.5781 -2.492,-14.1445 -11.644,-22.0547 -17.468,-34.1211 -7.91,-9.5742 -15.395,-21.2226 -28.301,-24.9726 -3.328,-2.9102 -9.57,-1.6602 -12.484,-4.9805 -6.247,-0.8398 -12.907,-2.0898 -19.141,-2.918 -1.25,0.4102 -4.16,2.0782 -4.996,0 -9.574,-0.4101 -18.305,0.4102 -25.801,2.918 -13.316,1.6523 -20.395,12.4805 -28.711,21.2187 0,7.0625 -7.488,7.4844 -8.738,13.3125 -4.168,4.5704 -3.328,12.4805 -7.91,16.6407 -0.832,8.7422 -2.496,16.2304 -6.239,22.8905 1.243,5.82 -2.078,13.32 -0.828,21.215 2.071,0.84 1.66,2.922 0.828,4.172 -1.25,4.578 2.914,10.812 0,16.648 1.664,6.239 4.996,11.649 4.996,19.141 1.243,6.652 5.825,10.816 7.071,17.473 2.496,7.91 7.492,14.57 10.82,21.64 2.078,2.078 4.996,0.828 6.656,-0.824 0.828,-15.402 -9.152,-23.313 -7.07,-39.539 -1.664,-8.324 -0.414,-18.731 -0.836,-27.879 2.5,-1.664 -1.246,-7.496 2.914,-7.496 -0.836,-8.731 4.57,-13.32 7.074,-19.551 3.328,-4.59 4.993,-9.9882 9.989,-13.7304 1.664,-3.75 6.66,-4.1679 8.738,-7.9179 7.484,0 9.57,-7.9024 19.141,-4.9844 5.41,-1.668 12.488,-0.418 19.136,-0.8399 7.91,5.4141 17.899,8.3243 23.313,17.0625 8.316,1.6602 9.16,11.2301 14.144,16.2301 2.078,9.157 2.914,19.145 6.66,27.051 1.25,7.067 -2.082,11.235 -1.668,17.477 -1.664,4.578 -1.25,9.988 -4.152,13.32 1.238,8.32 -1.668,13.309 -5,18.305 -0.824,7.074 -6.246,12.492 -12.066,15.394 -4.996,6.246 -14.985,6.246 -23.719,7.492 -4.578,-1.246 -8.742,-2.082 -13.32,-2.91 -2.914,-1.246 -7.078,-1.664 -8.317,-4.996 -4.172,-0.836 -8.332,-7.484 -12.484,-2.078 -3.332,9.152 5.816,9.152 7.074,15.399 2.078,1.246 3.32,3.32 6.234,4.16 5.829,11.644 24.141,5.82 36.208,8.734 5.824,-0.832 11.656,-2.074 17.48,-2.914 h 8.32" /><path
         id="path28"
         style="fill:#f8d6ed;fill-opacity:1;fill-rule:nonzero;stroke:none"
         d="m 1743.26,34.1289 c 1.25,2.9102 -2.08,6.6484 -0.84,11.6484 -4.57,7.0743 1.25,22.0508 -4.99,28.293 -0.83,4.5781 -2.5,9.5703 -2.5,14.1524 1.25,1.6679 4.17,2.9101 4.58,5.8281 0,7.0702 -7.07,8.7422 -12.07,10.8202 -1.24,7.07 -4.99,12.07 -7.08,19.133 -0.4,3.754 1.68,9.574 -2.07,10.828 -0.42,6.66 -5.41,9.981 -6.66,16.227 2.91,9.988 -5.83,11.656 -4.16,20.39 -4.58,3.746 -3.33,12.071 -4.99,17.895 -3.33,2.082 -1.66,7.492 -4.99,9.574 0.41,5.402 -5,7.07 -5.84,12.062 1.26,1.25 -2.49,4.997 -1.25,6.247 -5.4,3.328 -1.65,13.312 -7.07,16.648 -0.83,4.156 -4.16,6.234 -6.65,9.566 h -19.56 c 0,-2.496 -3.75,-2.082 -4.58,-2.496 v 0.414 c -5.4,1.246 -8.32,-5.414 -12.48,-2.914 -5.83,-2.078 -7.91,-7.91 -14.57,-9.156 -4.99,0.84 -3.33,-4.988 -6.24,-6.238 -5.83,-5.41 -9.15,-12.071 -13.32,-19.145 2.5,-9.152 -4.99,-11.238 -3.74,-19.558 -3.74,-6.66 -1.25,-17.891 -6.25,-23.723 1.67,-9.152 -1.66,-14.566 -4.98,-19.973 -1.67,-10.816 -3.75,-21.214 -5.83,-31.629 -4.57,-3.742 -3.33,-11.6519 -5,-17.4722 -4.16,-4.5781 -3.74,-12.4805 -7.9,-17.0703 0,-9.1524 -5.83,-13.7188 -6.24,-22.461 -3.75,-2.9179 -2.91,-7.9101 -5.83,-11.2422 -0.41,-5.4101 -2.08,-9.5664 -2.91,-14.5585 2.5,-4.5782 7.49,-7.5 13.32,-7.9102 0.41,0.4102 -0.42,1.25 0.41,1.6602 6.24,0 3.74,7.9101 9.58,8.332 2.07,6.6601 9.15,9.1484 8.73,17.8984 h 1.25 c 2.5,3.7305 3.33,9.1406 7.08,12.0625 -1.68,5.8164 2.49,7.0664 4.15,10.8164 5.83,2.5 5.83,9.9922 11.24,12.9024 4.58,1.2422 12.49,-2.4922 14.15,2.9101 h 54.51 l 2.5,-1.6679 c 2.5,0 4.58,-0.4102 5.83,1.6679 5.82,1.6602 8.31,-1.6679 9.98,-5.4023 3.33,-11.6602 8.74,-21.2266 12.9,-32.4688 7.48,-1.2422 1.66,-12.9023 9.16,-14.5586 -2.08,-9.1601 7.49,-9.5703 7.07,-17.9023 1.66,-2.5 4.16,-5.40235 7.9,-5.40235 4.17,-0.82812 6.66,2.90235 7.5,5.82425 -2.92,1.6601 0.41,2.9101 0.83,4.1679 -0.42,4.9922 1.66,12.0625 -2.08,14.9688 m -85.72,79.0738 c -7.07,1.668 -16.24,0.411 -24.56,0.832 -2.07,0.836 -2.91,2.918 -5.82,2.079 0,-1.454 -1.41,-1.094 -2.27,-1.309 l -0.64,-0.77 0.64,0.77 c 3.93,4.719 7.59,9.258 6.02,17.535 2.49,6.664 7.9,10.828 9.98,17.481 -1.67,5.828 4.16,6.66 2.08,12.488 1.25,5.828 5.41,9.566 9.99,12.062 7.07,0 7.49,-7.074 12.48,-9.992 4.16,-8.312 10.4,-14.558 9.99,-25.375 3.74,-3.746 4.58,-9.57 7.07,-14.566 1.67,-5.828 5,-10.403 5.82,-16.227 -9.98,-1.668 -21.63,1.66 -30.78,4.992" /><path
         id="path30"
         style="fill:#f8d6ed;fill-opacity:1;fill-rule:nonzero;stroke:none"
         d="m 551.023,31.6289 c -2.078,0.4102 -2.078,2.9102 -2.078,4.9883 -2.507,2.9219 1.239,9.9844 -2.918,11.6601 1.25,13.7227 -1.664,24.5508 -4.992,35.3633 -6.66,5 3.738,7.4922 2.078,13.3086 -3.328,0.8438 -4.16,5.4218 -7.902,5.4218 -3.332,7.07 -6.246,13.731 -9.16,20.805 0.832,7.078 -1.668,11.23 -3.332,15.816 h 0.422 c -4.578,5.406 -7.493,12.067 -6.243,21.633 h -0.832 c -0.418,3.34 -4.578,4.992 -2.914,9.988 -6.238,1.25 -0.414,10.821 -4.996,13.321 -1.242,9.156 -7.074,15.812 -9.152,24.554 -4.156,0 0.426,6.242 -3.742,6.242 -0.84,4.575 -2.918,7.907 -2.09,13.727 -6.238,2.082 -3.734,10.824 -9.981,12.488 l -2.078,2.496 c -7.91,-0.832 -18.726,2.079 -22.886,-2.496 v 0.414 c -9.161,0.832 -15.403,-1.25 -22.477,-2.914 -0.832,-4.57 -6.66,-2.906 -7.078,-7.488 -6.238,-3.328 -8.317,-10.402 -12.899,-14.562 -1.664,-2.5 -0.828,-7.079 -4.16,-7.907 1.246,-5.414 -2.082,-7.5 -0.832,-12.484 -6.652,-6.246 -4.16,-18.731 -6.242,-27.879 -6.238,-4.586 0.414,-17.48 -5.414,-22.477 -2.488,-4.996 -2.91,-10.402 -5.406,-14.98 2.496,-6.664 -4.16,-6.664 -2.078,-13.316 0.418,-6.661 -4.161,-9.993 -3.746,-16.641 -3.747,-6.2501 -5.411,-13.7383 -7.075,-21.2227 -2.496,-2.0899 -3.746,-5.0078 -2.918,-9.5781 -5.824,-8.3204 -6.234,-20.3907 -12.058,-28.3008 1.664,-7.0703 -3.328,-8.7422 -2.914,-14.5586 1.246,-4.1602 4.996,-6.2422 7.898,-8.7422 6.66,-2.9102 4.996,4.9922 10.406,3.7422 2.5,7.5 10.825,10.8164 12.071,19.1367 -0.832,5.832 4.996,7.0898 5.82,12.0742 4.164,4.5781 3.75,12.4883 8.738,16.6485 3.75,-0.4102 2.086,5.8281 6.246,4.9882 l 0.414,-0.8281 c 16.227,0 32.047,-0.4219 44.95,4.1602 5.406,0.8398 10.812,1.6601 16.23,2.9179 6.652,1.2422 14.141,1.2422 19.969,3.7422 3.332,0 8.324,0.8321 7.906,-3.7422 2.914,-1.6601 2.5,-5 4.164,-7.5 0.832,-9.1484 5.41,-14.5586 9.981,-21.2109 -0.825,-6.6602 7.496,-8.3281 5.832,-16.2266 3.746,-0.8437 2.078,-6.25 4.168,-8.7421 0.41,-5.418 6.652,-5.418 5.82,-12.4883 4.16,-0.8399 2.91,-7.49222 9.156,-5.82425 4.164,-1.66797 5.41,2.08205 6.246,4.58205 2.493,4.9805 2.078,11.2305 2.078,17.8906 m -89.476,81.5621 c -6.652,1.668 -15.391,0.411 -22.887,0.832 -2.078,0.836 -2.91,2.918 -5.824,2.079 2.496,9.156 9.988,14.984 12.898,24.55 4.996,1.25 4.168,8.743 9.579,9.993 2.5,0 4.57,0.414 5.41,2.914 4.156,-3.332 4.988,-2.086 9.562,-4.582 3.332,-5.411 8.746,-9.567 10.828,-15.809 2.492,-9.992 10.817,-15.402 12.059,-26.227 -12.059,0.418 -21.637,3.332 -31.625,6.25" /></g></g></svg>