<?xml version="1.0" encoding="UTF-8" standalone="no"?>
<svg
   xmlns:dc="http://purl.org/dc/elements/1.1/"
   xmlns:cc="http://creativecommons.org/ns#"
   xmlns:rdf="http://www.w3.org/1999/02/22-rdf-syntax-ns#"
   xmlns:svg="http://www.w3.org/2000/svg"
   xmlns="http://www.w3.org/2000/svg"
   viewBox="0 0 141.42667 130.24001"
   height="130.24001"
   width="141.42667"
   xml:space="preserve"
   id="svg2"
   version="1.1"><metadata
     id="metadata8"><rdf:RDF><cc:Work
         rdf:about=""><dc:format>image/svg+xml</dc:format><dc:type
           rdf:resource="http://purl.org/dc/dcmitype/StillImage" /></cc:Work></rdf:RDF></metadata><defs
     id="defs6" /><g
     transform="matrix(1.3333333,0,0,-1.3333333,0,130.24)"
     id="g10"><g
       transform="scale(0.1)"
       id="g12"><path
         id="path14"
         style="fill:#f8d6ed;fill-opacity:1;fill-rule:nonzero;stroke:none"
         d="m 313.203,441.836 c -0.39,0 -0.773,0 -1.164,0 0,11.57 0.277,23.144 -0.062,34.707 -0.516,17.41 -7.063,25.352 -24.645,26.941 -14.625,1.329 -29.473,0.778 -44.191,0.219 -7.258,-0.273 -14.633,-1.797 -21.625,-3.875 -13.121,-3.898 -17.559,-10.402 -17.254,-23.98 0.508,-22.793 1.336,-45.586 1.773,-68.387 0.301,-15.5 3.906,-23.184 19.403,-24.824 22.082,-2.336 44.746,-2.52 66.839,-0.356 16.575,1.633 20.922,9.914 20.926,26.782 0,10.925 0,21.843 0,32.773 z m 62.469,-65.715 c 0.226,-15.027 -6.324,-26.824 -20.852,-32.469 -21.105,-8.214 -43.285,-8.156 -65.519,-6.933 -36.559,2.019 -73.113,4.246 -109.699,5.672 -16.625,0.644 -21.993,-5.176 -21.762,-21.399 0.43,-29.871 1.269,-59.742 1.754,-89.617 0.191,-12.07 -7.063,-16.727 -18.063,-11.434 -15.031,7.215 -30.328,14.11 -44.4451,22.872 -4.5703,2.832 -8.2031,11.074 -8.1601,16.804 0.2617,32.746 1.8281,65.481 2.8203,98.223 1.082,35.976 2.0039,71.953 3.0508,107.93 0.3281,11.234 0.8437,22.464 1.2461,33.703 0.3789,10.593 -4.2383,14.968 -14.4805,13.718 -22.9414,-2.812 -45.8789,-5.644 -68.8203,-8.449 -8.81642,-1.07 -13.718763,3.156 -12.578137,12.145 1.964847,15.601 4.613277,31.129 7.238277,46.64 1.23829,7.297 7.13676,7.286 12.75396,7.106 26.3203,-0.828 52.6289,-1.949 78.9531,-2.524 25.6836,-0.558 51.4066,0.012 77.0666,-0.988 33.387,-1.301 66.75,-3.383 100.086,-5.691 18.824,-1.309 37.965,-2.043 56.195,-6.309 11.234,-2.633 21.961,-10.308 31.09,-17.91 4.926,-4.106 8.141,-12.727 8.441,-19.473 1.016,-22.765 3.317,-117.222 3.684,-141.617" /><path
         id="path16"
         style="fill:#f8d6ed;fill-opacity:1;fill-rule:nonzero;stroke:none"
         d="m 558.852,321.777 c 0.046,0.782 0.105,1.563 0.164,2.332 7.683,0 15.39,-0.324 23.054,0.071 16.118,0.84 23.176,8.347 23.325,24.218 0.015,1.922 0.007,3.844 -0.012,5.77 -0.235,17.629 -6.746,24.152 -24.61,24.363 -11.867,0.149 -23.757,0.559 -35.566,-0.183 -8.867,-0.567 -17.926,-1.836 -26.371,-4.481 -13.457,-4.23 -19.625,-12.875 -19.32,-24.172 0.304,-11.347 6.82,-19.98 20.515,-23.054 12.66,-2.844 25.856,-3.34 38.821,-4.864 z M 518.93,532.793 c 31.125,0 62.34,1.508 93.347,-0.441 28.399,-1.786 52.598,-28.61 55.286,-57.098 4.39,-46.652 8.281,-93.359 13.101,-139.973 1.977,-19.031 -5.32,-32.332 -21.062,-41.828 -21.719,-13.086 -45.594,-16.414 -70.403,-15.047 -33.621,1.856 -67.246,3.789 -100.863,5.821 -15.363,0.937 -30.856,1.25 -46.039,3.515 -23.008,3.438 -34.926,17.278 -36.285,40.418 -0.699,11.86 -0.832,23.762 -0.828,35.649 0.007,25.398 12.871,42.156 38.226,45.066 26.067,2.996 52.535,2.305 78.731,4.414 11.601,0.93 23.386,3.633 34.336,7.629 13.586,4.941 16.125,16.922 14.816,30.145 -1.176,11.906 -8.441,19.785 -19.133,21.3 -17.336,2.442 -35.023,2.86 -52.578,3.055 -11.148,0.129 -22.504,-0.73 -33.437,-2.859 -14.668,-2.856 -20.911,-10.981 -20.579,-25.754 0.227,-9.989 -5.402,-13.289 -13.519,-13.731 -11.859,-0.652 -23.77,-0.683 -35.649,-0.469 -8.425,0.149 -12.406,4.598 -12.582,13.497 -0.91,46.078 28.872,80.332 75.438,84.304 19.758,1.692 59.68,1.688 59.676,2.387" /><path
         id="path18"
         style="fill:#f8d6ed;fill-opacity:1;fill-rule:nonzero;stroke:none"
         d="m 804.102,659.223 c 0,0.254 0,0.507 0,0.761 5.128,0 10.293,-0.375 15.39,0.063 18.637,1.605 29.278,15.101 28.274,35.453 -0.871,17.715 -12.461,28.633 -30.672,28.691 -8.664,0.032 -17.348,0.059 -25.989,-0.472 -19.726,-1.223 -31.308,-14.156 -31.027,-34.176 0.258,-17.969 12.133,-29.422 31.524,-30.293 4.164,-0.184 8.332,-0.027 12.5,-0.027 z m 87.003,104.941 c 0,-25.211 -0.078,-49.316 0.032,-73.418 0.054,-12.707 1.082,-14.219 13.933,-13.086 18.184,1.602 36.321,4.117 54.368,6.891 7.417,1.14 13.042,0.769 14.148,-7.934 1.738,-13.699 3.215,-27.433 4.629,-41.168 0.82,-7.945 -2.5,-11.531 -10.988,-11.785 -63.25,-1.887 -126.493,-4.219 -189.747,-6.191 -13.054,-0.403 -26.421,-1.594 -39.148,0.539 -25.398,4.258 -41.672,25.511 -41.777,51.433 -0.059,11.891 -0.332,23.782 -0.293,35.676 0.105,31.141 19.16,53.219 50.039,56.949 13.652,1.649 27.512,2.032 41.277,2.215 23.664,0.313 24.863,1.281 24.633,25.215 -0.195,19.551 -10.832,30.422 -30.356,30.855 -6.746,0.145 -13.503,0.114 -20.253,0 -10.274,-0.175 -20.575,-0.187 -30.829,-0.82 -13.253,-0.816 -17.644,-5.226 -18.593,-18.457 -0.418,-5.742 -0.047,-11.558 0.222,-17.332 0.403,-8.445 -4.004,-12.797 -11.902,-13.172 -11.23,-0.531 -22.52,-0.855 -33.723,-0.136 -3.164,0.199 -8.433,4.046 -8.757,6.699 -3.016,25.207 -2.461,49.918 12.414,72.269 13.843,20.801 33.328,29.625 57.832,30.555 33.66,1.269 67.261,3.898 100.918,5.332 9.175,0.391 18.777,-0.168 27.617,-2.473 22.312,-5.824 36.543,-25.172 36.687,-48.465 0.078,-11.886 -0.437,-23.777 -0.859,-35.66 -0.41,-11.879 -1.043,-23.75 -1.524,-34.531" /><path
         id="path20"
         style="fill:#f8d6ed;fill-opacity:1;fill-rule:nonzero;stroke:none"
         d="m 342.906,189.617 c -0.496,0 -0.988,0 -1.488,0 0,11.555 0.082,23.106 -0.02,34.649 -0.14,15.808 -8.187,24.589 -24.019,25.234 -10.887,0.441 -21.863,0.293 -32.723,-0.566 -16.004,-1.258 -23.496,-8.985 -25.5,-24.844 -0.722,-5.731 -1.367,-11.473 -2.031,-17.207 -2.176,-18.778 -5.027,-37.52 -6.316,-56.356 -1.172,-17.043 5.312,-23.351 21.707,-23.039 15.382,0.305 30.765,0.918 46.129,1.778 16.949,0.949 23.957,8.488 24.226,25.703 0.184,11.554 0.035,23.105 0.035,34.648 z m -55.957,131.082 c 22.649,0 42.02,1.43 61.09,-0.32 29.844,-2.742 48.379,-22.313 50.977,-52.227 2.558,-29.402 4.156,-58.906 6.062,-88.371 1.313,-20.172 3.254,-40.347 3.473,-60.543 0.418,-38.7028 -22.254,-62.4802 -61.016,-62.9021 -41.09,-0.4492 -82.222,0.2813 -123.301,1.5821 -29.394,0.9297 -51.769,26.1914 -50.379,57.316 2.094,46.797 5.598,93.536 8.571,140.293 0.469,7.332 0.226,14.922 2.101,21.903 6.215,23.215 28.039,39.406 54.805,41.125 16.984,1.082 34.012,1.55 47.617,2.144" /><path
         id="path22"
         style="fill:#f8d6ed;fill-opacity:1;fill-rule:nonzero;stroke:none"
         d="m 536.738,0.0078125 c -30.55,0 -61.097,-0.0273438 -91.644,0.0195313 C 434.211,0.0351563 432.242,2.08984 431.754,12.793 c -1.211,26.3164 -2.801,52.6133 -3.664,78.9453 -0.703,21.3277 1.945,24.5707 21.801,31.5707 43.863,15.468 87.711,30.996 131.566,46.496 1.211,0.429 2.422,0.847 3.621,1.289 5.305,1.941 11.594,4.605 9.055,11.015 -1.27,3.192 -8.145,5.938 -12.422,5.86 -48.508,-0.84 -96.996,-2.246 -145.488,-3.567 -14.883,-0.398 -16.383,1.047 -17.696,15.801 -1.625,18.235 -3.449,36.445 -5.492,54.641 -1.676,14.929 1.231,18.152 15.809,17.09 61.844,-4.504 123.687,-8.918 185.523,-13.371 8.328,-0.594 16.653,-1.465 24.988,-1.797 6.583,-0.262 8.848,-3.465 8.938,-9.786 0.273,-20.554 0.77,-41.113 1.434,-61.66 0.507,-15.769 -6.043,-26.445 -20.235,-33.996 -30.601,-16.304 -60.789,-33.406 -90.801,-50.789 -4.214,-2.4491 -9.285,-8.5428 -8.988,-12.578 0.559,-7.5 8.352,-7.4687 14.563,-7.3125 27.933,0.7032 55.875,1.5703 83.812,2.2227 12.899,0.3047 15.762,-2.6328 15.879,-15.75 0.156,-17.6836 0.215,-35.3711 0.266,-53.0469 C 644.25,3.92578 640.688,0.273438 630.313,0.242188 599.121,0.15625 567.934,0.214844 536.738,0.214844 c 0,-0.070313 0,-0.1406252 0,-0.2070315" /><path
         id="path24"
         style="fill:#f8d6ed;fill-opacity:1;fill-rule:nonzero;stroke:none"
         d="m 915.637,453.453 c 0.008,-0.172 0.027,-0.348 0.051,-0.523 12.476,0.867 25,1.297 37.41,2.742 10.632,1.23 21.601,4.988 23.086,16.902 2.324,18.684 3.894,37.848 -3.782,56 -4.839,11.457 -13.418,17.512 -26.367,16.973 -16.043,-0.68 -32.097,-1.055 -48.152,-1.32 -15.07,-0.243 -25.332,-6.547 -27.649,-21.403 -2.195,-14.062 -2.546,-28.89 -0.711,-42.996 2.754,-21.207 10.352,-26.39 31.653,-26.375 4.812,0.012 9.637,0 14.461,0 z m -64.629,-73.199 c -35.266,-0.832 -57.578,18.863 -58.211,54.422 -0.332,18.816 2.137,37.765 4.336,56.539 2.488,21.336 5.445,42.672 9.488,63.758 1.84,9.566 5.82,19.05 10.512,27.664 6.961,12.816 18.941,19.051 33.426,19.386 44.023,1.036 88.046,1.735 132.07,2.614 6.719,0.136 13.547,1.468 20.121,0.668 23.78,-2.91 41.78,-19.606 45.75,-46.52 5.51,-37.433 9.41,-75.187 12.04,-112.937 1.45,-20.918 -7.8,-39.383 -25.22,-51.512 -7.94,-5.527 -18.59,-9.484 -28.2,-9.895 -29.835,-1.25 -133.964,-3.671 -156.112,-4.187" /><path
         id="path26"
         style="fill:#f8d6ed;fill-opacity:1;fill-rule:nonzero;stroke:none"
         d="m 443.547,611.094 c -0.535,-9.942 -1.699,-19.903 -1.43,-29.824 0.223,-8.215 -3.062,-10.957 -10.738,-10.602 -26.316,1.215 -52.649,2.191 -78.965,3.398 -34.656,1.586 -69.32,3.137 -103.965,5.008 -32.054,1.731 -64.156,3.114 -96.101,6.09 -19.02,1.774 -28.543,10.727 -28.563,24.367 -0.008,7.543 2.34,15.141 3.988,22.637 15.872,72.055 31.872,144.078 47.665,216.156 1.414,6.453 4.41,9.735 10.687,12.852 18.676,9.262 36.449,20.32 54.844,30.183 3.832,2.059 6.957,2.899 13.258,2.899 3.613,0 2.394,-8.438 1.98,-12.488 -7.363,-71.536 -14.941,-143.055 -22.57,-214.571 -2.016,-18.808 5.906,-26.816 26.886,-25.629 27.59,1.559 55.149,3.618 82.715,5.547 30.426,2.125 60.848,4.352 91.27,6.496 7.633,0.539 11.328,-2.613 10.64,-10.738 -0.894,-10.566 -1.242,-21.176 -1.828,-31.773 0.078,0 0.153,-0.004 0.227,-0.008" /><path
         id="path28"
         style="fill:#f8d6ed;fill-opacity:1;fill-rule:nonzero;stroke:none"
         d="m 532.277,557.176 c -13.8,0 -27.679,-0.946 -41.382,0.207 -25.372,2.129 -34.012,12.137 -33.325,37.148 2.328,84.746 4.602,169.496 7.36,254.231 1.207,36.894 3.699,73.742 5.254,110.625 0.339,8.183 3.851,10.992 11.711,11.629 17.902,1.437 35.738,3.664 53.593,5.668 7.379,0.824 9.59,-2.621 9.239,-9.571 -3.352,-65.746 -6.532,-131.504 -9.797,-197.258 -2.09,-42 -4.367,-83.996 -6.309,-126.007 -0.758,-16.407 6.824,-24.504 23.395,-24.196 16.367,0.301 32.711,1.821 49.058,2.911 9.614,0.636 19.211,1.433 28.813,2.246 7.633,0.644 11.836,-1.965 12.918,-10.344 1.804,-13.969 4.543,-27.832 7.187,-41.68 1.594,-8.289 -1.457,-11.953 -9.863,-12.176 -35.945,-0.953 -71.895,-2.105 -107.844,-3.183 -0.004,-0.082 -0.004,-0.168 -0.008,-0.25" /><path
         id="path30"
         style="fill:#f8d6ed;fill-opacity:1;fill-rule:nonzero;stroke:none"
         d="m 731.43,309.258 c -10.024,0.086 -20.254,2.715 -29.953,5.633 -8.387,2.539 -12.442,9.367 -12.383,18.586 0.578,84.226 1.101,168.464 1.418,252.699 0.027,7.515 3.347,9.519 10.015,9.066 25.317,-1.726 50.625,-3.445 75.95,-4.922 7.429,-0.433 9.003,-4.246 8.25,-10.84 -7.555,-66.695 -14.981,-133.398 -22.489,-200.097 -1.484,-13.231 5.227,-20.449 21.211,-20.195 18.594,0.292 37.18,1.828 55.75,3.054 38.156,2.531 76.289,5.266 114.438,7.817 6.304,0.418 9.187,-2.454 9.136,-9.219 -0.093,-13.496 0.2,-27.016 0.95,-40.488 0.41,-7.375 -2.657,-9.758 -9.524,-9.692 -17.039,0.188 -165.554,-1.93 -222.769,-1.402" /><path
         id="path32"
         style="fill:#f8d6ed;fill-opacity:1;fill-rule:nonzero;stroke:none"
         d="m 794.465,126.855 c 9.187,0.938 18.176,1.29 26.926,2.879 12.5,2.258 21.082,11.164 20.996,20.508 -0.09,10.086 -7.422,18.606 -21.047,19.778 -16.453,1.414 -33.211,1.093 -49.719,-0.137 -12.859,-0.969 -18.816,-8 -19.363,-18.598 -0.559,-10.945 5.246,-18.68 17.715,-21.531 8.015,-1.824 16.406,-2 24.492,-2.899 z M 720.883,90.8477 c -16.418,0.2656 -30.5,6.8671 -42.168,18.4573 -7.141,7.101 -11.223,15.519 -11.176,25.769 0.031,6.43 0.195,12.883 -0.269,19.281 -1.25,17.168 6.98,29.383 22.207,34.43 15.3,5.063 31.687,7.387 47.781,9.328 12.375,1.496 25.039,0.418 37.566,0.742 3.481,0.09 7.024,0.774 10.383,1.7 14.797,4.121 21.063,11.347 20.867,23.691 -0.215,13.203 -7.636,24.082 -21.543,25.567 -15.105,1.621 -30.64,0.273 -45.906,-0.938 -7.82,-0.625 -12.559,-5.977 -11.785,-14.734 0.769,-8.821 -4.145,-12.121 -12.219,-12.239 -12.527,-0.175 -25.066,-0.339 -37.605,-0.617 -7.5,-0.152 -10.957,3.285 -11.496,10.891 -1.653,23.351 5.871,36.965 28.242,44.316 12.89,4.25 26.875,5.949 40.515,7.024 31.059,2.437 62.2,3.906 93.325,5.527 17.632,0.918 34.668,-1.309 49.586,-11.934 10.351,-7.382 16.25,-16.933 15.585,-30.168 -1.863,-37.207 -3.269,-74.433 -5.371,-111.621 -1.089,-19.414 -21.941,-40.2927 -45.254,-44.2262 -13.804,-2.3243 -94.929,-0.6563 -121.265,-0.2461" /><path
         id="path34"
         style="fill:#f8d6ed;fill-opacity:1;fill-rule:nonzero;stroke:none"
         d="m 340.449,759.777 c 0.289,0 0.574,0 0.864,0 0,-8.976 0.132,-17.957 -0.036,-26.925 -0.195,-10.364 5.137,-17.153 14.821,-18.11 11.32,-1.121 23.039,-1.051 34.285,0.574 10.273,1.489 17.113,8.793 18.187,19.672 1.672,16.899 3.047,33.832 4.11,50.782 0.769,12.437 -3.582,19.648 -15.996,20.941 -13.782,1.441 -28.036,0.625 -41.821,-1.199 -9.398,-1.242 -14.519,-8.715 -14.429,-18.821 0.082,-8.968 0.015,-17.945 0.015,-26.914 z m 108.739,9.606 c 0,-14.145 -0.836,-28.352 0.164,-42.426 2.347,-33.004 -19.161,-47.516 -45.7,-51.012 -35.011,-4.613 -70.054,-8.961 -105.082,-13.48 -23.554,-3.039 -41.703,13.523 -40.691,38.558 0.75,18.59 3.129,37.125 4.965,55.661 2.183,22.05 4.89,44.046 6.758,66.121 1.586,18.785 10.086,29.863 27.89,36.109 17.113,6 34.34,3.086 51.559,1.723 22.371,-1.77 44.855,-2.957 67.035,-6.176 22.832,-3.305 33.539,-17.606 33.344,-40.703 -0.059,-7.391 -0.008,-14.789 -0.008,-22.188 0,-7.39 0,-14.789 0,-22.183 -0.078,-0.004 -0.156,-0.004 -0.234,-0.004" /><path
         id="path36"
         style="fill:#f8d6ed;fill-opacity:1;fill-rule:nonzero;stroke:none"
         d="m 574.902,638.73 c -19.695,1.938 -24.91,9.887 -23.937,29.375 3.535,70.84 6.969,141.688 10.465,212.528 1.218,24.683 2.722,49.355 3.66,74.047 0.254,6.687 2.668,9.269 9.238,8.672 20.449,-1.86 40.899,-3.739 61.375,-5.227 7.512,-0.543 8.723,-4.258 8.067,-10.855 -6.434,-65.153 -12.672,-130.321 -18.961,-195.481 -0.801,-8.301 -1.555,-16.605 -2.356,-24.906 -1.152,-11.848 2.981,-17.692 14.883,-18.731 10.203,-0.894 20.559,-0.933 30.781,-0.316 7.766,0.469 11.153,-1.477 11.113,-9.863 -0.085,-16.348 0.418,-32.711 1.25,-49.039 0.442,-8.61 -3.261,-11.317 -11.32,-11.129 -14.121,0.34 -77.117,-0.766 -94.258,0.925" /></g></g></svg>