<?xml version="1.0" encoding="UTF-8" standalone="no"?>
<svg
   xmlns:dc="http://purl.org/dc/elements/1.1/"
   xmlns:cc="http://creativecommons.org/ns#"
   xmlns:rdf="http://www.w3.org/1999/02/22-rdf-syntax-ns#"
   xmlns:svg="http://www.w3.org/2000/svg"
   xmlns="http://www.w3.org/2000/svg"
   viewBox="0 0 130.22667 129.86667"
   height="129.86667"
   width="130.22667"
   xml:space="preserve"
   id="svg2"
   version="1.1"><metadata
     id="metadata8"><rdf:RDF><cc:Work
         rdf:about=""><dc:format>image/svg+xml</dc:format><dc:type
           rdf:resource="http://purl.org/dc/dcmitype/StillImage" /></cc:Work></rdf:RDF></metadata><defs
     id="defs6" /><g
     transform="matrix(1.3333333,0,0,-1.3333333,0,129.86667)"
     id="g10"><g
       transform="scale(0.1)"
       id="g12"><path
         id="path14"
         style="fill:#f8d6ed;fill-opacity:1;fill-rule:evenodd;stroke:none"
         d="M 339.953,917.344 V 499.141 c 0,-88.301 62.356,-156.485 148.395,-156.485 89.347,0 151.093,68.137 151.093,159.184 v 366.933 c 0,49.004 1.192,82.239 -39.91,92.301 C 564.5,969.645 525.027,974 480.258,974 h -10.797 c -50.457,0 -129.508,-6.758 -129.508,-56.656 v 0" /><path
         id="path16"
         style="fill:#f8d6ed;fill-opacity:1;fill-rule:evenodd;stroke:none"
         d="m 0,496.445 v -26.98 C 0,221.238 224.434,0 474.855,0 h 37.774 c 133.191,0 255.465,76.0234 323.094,143.672 71.433,71.418 140.976,187.051 140.976,328.484 v 48.571 c 0,62.179 -31.437,146.507 -53.027,189.793 -17.949,35.945 -77.16,119.894 -109.18,137.062 l -7.773,-5.785 c 0,-137.984 15.742,-363.676 -20.754,-464.902 C 750.301,278.027 634.063,175.371 501.84,175.371 h -32.379 c -87.887,0 -164.805,52.832 -209.77,97.805 -46.468,46.472 -89.711,126.148 -89.711,217.875 v 356.14 C 132.379,846.348 70.0234,738.203 51.7852,706.371 23.8164,657.539 0,572.973 0,496.445 v 0" /></g></g></svg>